<mxfile host="app.diagrams.net" modified="2021-01-20T14:39:21.490Z" agent="5.0 (X11; Linux x86_64) AppleWebKit/537.36 (KHTML, like Gecko) Chrome/87.0.4280.141 Safari/537.36" etag="R49AucFg5GFc12UAmEgb" version="14.2.5" type="github">
  <diagram id="a1jPhdqWabQiFX-1uQYy" name="Page-1">
    <mxGraphModel dx="1422" dy="774" grid="1" gridSize="10" guides="1" tooltips="1" connect="1" arrows="1" fold="1" page="1" pageScale="1" pageWidth="827" pageHeight="1169" math="0" shadow="0">
      <root>
        <mxCell id="0" />
        <mxCell id="1" parent="0" />
        <mxCell id="ccBO10iCFDZs0RIrl0iz-5" value="" style="edgeStyle=orthogonalEdgeStyle;rounded=0;orthogonalLoop=1;jettySize=auto;html=1;" edge="1" parent="1" source="ccBO10iCFDZs0RIrl0iz-1" target="ccBO10iCFDZs0RIrl0iz-4">
          <mxGeometry relative="1" as="geometry" />
        </mxCell>
        <mxCell id="ccBO10iCFDZs0RIrl0iz-1" value="XLM-REBERTA(Generator)" style="rounded=1;whiteSpace=wrap;html=1;" vertex="1" parent="1">
          <mxGeometry x="340" y="280" width="250" height="120" as="geometry" />
        </mxCell>
        <mxCell id="ccBO10iCFDZs0RIrl0iz-3" value="" style="edgeStyle=orthogonalEdgeStyle;rounded=0;orthogonalLoop=1;jettySize=auto;html=1;" edge="1" parent="1" source="ccBO10iCFDZs0RIrl0iz-2" target="ccBO10iCFDZs0RIrl0iz-1">
          <mxGeometry relative="1" as="geometry" />
        </mxCell>
        <mxCell id="ccBO10iCFDZs0RIrl0iz-7" style="edgeStyle=orthogonalEdgeStyle;rounded=0;orthogonalLoop=1;jettySize=auto;html=1;entryX=1;entryY=0.5;entryDx=0;entryDy=0;" edge="1" parent="1" source="ccBO10iCFDZs0RIrl0iz-2" target="ccBO10iCFDZs0RIrl0iz-4">
          <mxGeometry relative="1" as="geometry">
            <mxPoint x="690" y="250" as="targetPoint" />
            <Array as="points">
              <mxPoint x="640" y="430" />
              <mxPoint x="640" y="240" />
            </Array>
          </mxGeometry>
        </mxCell>
        <mxCell id="ccBO10iCFDZs0RIrl0iz-2" value="&amp;lt;s&amp;gt;The U.S.A&amp;lt;/s&amp;gt;" style="text;html=1;strokeColor=none;fillColor=none;align=center;verticalAlign=middle;whiteSpace=wrap;rounded=0;" vertex="1" parent="1">
          <mxGeometry x="387" y="420" width="156" height="20" as="geometry" />
        </mxCell>
        <mxCell id="ccBO10iCFDZs0RIrl0iz-4" value="&amp;lt;s&amp;gt;The U.S.A&amp;lt;/s&amp;gt;" style="text;html=1;strokeColor=none;fillColor=none;align=center;verticalAlign=middle;whiteSpace=wrap;rounded=0;" vertex="1" parent="1">
          <mxGeometry x="387" y="230" width="156" height="20" as="geometry" />
        </mxCell>
        <mxCell id="ccBO10iCFDZs0RIrl0iz-8" value="DAE" style="text;html=1;strokeColor=none;fillColor=none;align=center;verticalAlign=middle;whiteSpace=wrap;rounded=0;" vertex="1" parent="1">
          <mxGeometry x="650" y="320" width="40" height="20" as="geometry" />
        </mxCell>
        <mxCell id="ccBO10iCFDZs0RIrl0iz-12" value="" style="edgeStyle=orthogonalEdgeStyle;rounded=0;orthogonalLoop=1;jettySize=auto;html=1;" edge="1" parent="1" source="ccBO10iCFDZs0RIrl0iz-9" target="ccBO10iCFDZs0RIrl0iz-11">
          <mxGeometry relative="1" as="geometry" />
        </mxCell>
        <mxCell id="ccBO10iCFDZs0RIrl0iz-9" value="cls" style="rounded=1;whiteSpace=wrap;html=1;" vertex="1" parent="1">
          <mxGeometry x="353" y="220" width="34" height="20" as="geometry" />
        </mxCell>
        <mxCell id="ccBO10iCFDZs0RIrl0iz-10" value="" style="endArrow=classic;html=1;entryX=0.5;entryY=1;entryDx=0;entryDy=0;exitX=0.12;exitY=0;exitDx=0;exitDy=0;exitPerimeter=0;" edge="1" parent="1" source="ccBO10iCFDZs0RIrl0iz-1" target="ccBO10iCFDZs0RIrl0iz-9">
          <mxGeometry width="50" height="50" relative="1" as="geometry">
            <mxPoint x="580" y="420" as="sourcePoint" />
            <mxPoint x="630" y="370" as="targetPoint" />
          </mxGeometry>
        </mxCell>
        <mxCell id="ccBO10iCFDZs0RIrl0iz-16" value="" style="edgeStyle=orthogonalEdgeStyle;rounded=0;orthogonalLoop=1;jettySize=auto;html=1;" edge="1" parent="1" source="ccBO10iCFDZs0RIrl0iz-11">
          <mxGeometry relative="1" as="geometry">
            <mxPoint x="460" y="160" as="targetPoint" />
          </mxGeometry>
        </mxCell>
        <mxCell id="ccBO10iCFDZs0RIrl0iz-11" value="Simple Discriminator" style="rounded=1;whiteSpace=wrap;html=1;" vertex="1" parent="1">
          <mxGeometry x="310" y="130" width="120" height="60" as="geometry" />
        </mxCell>
        <mxCell id="ccBO10iCFDZs0RIrl0iz-17" value="Which language?" style="text;html=1;strokeColor=none;fillColor=none;align=center;verticalAlign=middle;whiteSpace=wrap;rounded=0;" vertex="1" parent="1">
          <mxGeometry x="470" y="150" width="110" height="20" as="geometry" />
        </mxCell>
      </root>
    </mxGraphModel>
  </diagram>
</mxfile>
